Coordinates
version=1
nRows=16
nColumns=22
inDegrees=yes

Units are S.I. units (second, meters, Newtons, ...)
If the header above contains a line with 'inDegrees', this indicates whether rotational values are in degrees (yes) or radians (no).

endheader
time	pelvis_tilt	pelvis_list	pelvis_rotation	pelvis_tx	pelvis_ty	pelvis_tz	hip_flexion_r	hip_adduction_r	hip_rotation_r	knee_angle_r	ankle_angle_r	subtalar_angle_r	hip_flexion_l	hip_adduction_l	hip_rotation_l	knee_angle_l	ankle_angle_l	subtalar_angle_l	lumbar_extension	lumbar_bending	lumbar_rotation
      0.01000000	      1.68388321	      1.50621363	     15.32557826	      0.67242038	      1.08448310	     -0.35043906	     -0.03632674	     -1.10802058	    -16.49288001	    -14.03684748	     11.63407262	     -4.61653599	      0.08742696	      1.06711149	     10.56379403	    -11.42138843	     10.72291695	      1.89659808	     -6.46921768	     -1.56130863	     -1.26334689
      0.02000000	      1.70866813	      1.43310042	     14.83504086	      0.67286272	      1.08444053	     -0.34963865	     -0.03576119	     -1.00804987	    -16.06305059	    -13.97424875	     11.59748698	     -4.60185311	      0.05213309	      0.97457528	     10.09993773	    -11.45810087	     10.80582489	      1.87062763	     -6.46616433	     -1.55371260	     -1.33613144
      0.03000000	      1.73275839	      1.34852851	     14.25618025	      0.67337763	      1.08439024	     -0.34867606	     -0.03398173	     -0.89177977	    -15.54730093	    -13.89643412	     11.55740307	     -4.59503996	      0.01294666	      0.86839982	      9.55812885	    -11.49993712	     10.89214290	      1.84034368	     -6.45879335	     -1.54935475	     -1.42244594
      0.04000000	      1.75962647	      1.24591687	     13.61546548	      0.67395580	      1.08433855	     -0.34758364	     -0.03509441	     -0.75281834	    -14.98222543	    -13.80633841	     11.50836810	     -4.59091652	     -0.02881476	      0.74030935	      8.95877623	    -11.55181109	     10.99054544	      1.80646992	     -6.44496466	     -1.53834875	     -1.52505504
      0.05000000	      1.78371813	      1.12896533	     12.93162136	      0.67455558	      1.08428317	     -0.34639141	     -0.03526007	     -0.59735475	    -14.38617321	    -13.70357996	     11.45152047	     -4.58723289	     -0.06783190	      0.59632533	      8.32176398	    -11.60965919	     11.09526429	      1.77269020	     -6.42502246	     -1.52135200	     -1.63843122
      0.06000000	      1.80017752	      0.99816910	     12.21951556	      0.67515820	      1.08421842	     -0.34512663	     -0.02893197	     -0.42844911	    -13.77678579	    -13.59297051	     11.38742598	     -4.58153878	     -0.09752504	      0.43842875	      7.65926283	    -11.67566870	     11.20528455	      1.74030985	     -6.39290259	     -1.49743429	     -1.75422743
      0.07000000	      1.80223293	      0.85860398	     11.48994339	      0.67573518	      1.08413721	     -0.34381442	     -0.00893573	     -0.25449443	    -13.16675232	    -13.47812813	     11.31877843	     -4.57194407	     -0.11081639	      0.27367523	      6.98270007	    -11.74858218	     11.31718906	      1.71107642	     -6.34470949	     -1.46988668	     -1.86611248
      0.08000000	      1.78734905	      0.71011843	     10.75011813	      0.67626070	      1.08403675	     -0.34247238	      0.02772355	     -0.07582790	    -12.56458370	    -13.35831450	     11.24594507	     -4.55448319	     -0.10113369	      0.10282878	      6.29463419	    -11.83310992	     11.43167175	      1.68281183	     -6.28177593	     -1.43597898	     -1.96519026
      0.09000000	      1.75622823	      0.56028612	     10.00543446	      0.67674148	      1.08392138	     -0.34111841	      0.07636618	      0.10051393	    -11.97061889	    -13.23153676	     11.17231534	     -4.52805685	     -0.07354009	     -0.06654165	      5.60339334	    -11.92434687	     11.54396555	      1.65740435	     -6.20535468	     -1.40163927	     -2.04883236
      0.10000000	      1.72000290	      0.40965641	      9.25965291	      0.67721314	      1.08380976	     -0.33975512	      0.12168801	      0.27786141	    -11.37922511	    -13.09723514	     11.09575638	     -4.48985962	     -0.04104221	     -0.23758191	      4.90816650	    -12.02341074	     11.65429410	      1.63245662	     -6.12049644	     -1.36658482	     -2.11067256
      0.11000000	      1.68582752	      0.26323407	      8.51843842	      0.67767942	      1.08371524	     -0.33841050	      0.15210278	      0.45200032	    -10.78942855	    -12.95052881	     11.01745023	     -4.43863659	     -0.01650088	     -0.40478519	      4.21793591	    -12.12075613	     11.75993810	      1.60871491	     -6.03798196	     -1.33155256	     -2.15437557
      0.12000000	      1.66227241	      0.12154115	      7.78722321	      0.67815914	      1.08365119	     -0.33709999	      0.15625816	      0.62314905	    -10.20088769	    -12.79065427	     10.93616051	     -4.37325568	     -0.01042492	     -0.56839145	      3.53808142	    -12.21496969	     11.86054768	      1.58551737	     -5.96325205	     -1.29544041	     -2.18357357
      0.13000000	      1.65342002	     -0.01535566	      7.07344896	      0.67865499	      1.08362516	     -0.33584383	      0.12704922	      0.79094276	     -9.61773814	    -12.61358182	     10.85198644	     -4.29386666	     -0.02508596	     -0.72751699	      2.87507001	    -12.30785215	     11.95549373	      1.56251208	     -5.90033278	     -1.25617032	     -2.20617105
      0.14000000	      1.66049514	     -0.14978695	      6.37907947	      0.67916414	      1.08363535	     -0.33464049	      0.06483681	      0.95691723	     -9.04197370	    -12.42136196	     10.76324988	     -4.20145334	     -0.06180131	     -0.88435733	      2.23298977	    -12.39746531	     12.04694462	      1.53941045	     -5.85071618	     -1.21221936	     -2.22427823
      0.15000000	      1.67944259	     -0.28733637	      5.70857919	      0.67968152	      1.08367036	     -0.33348343	     -0.02458252	      1.12654062	     -8.47645509	    -12.21482939	     10.66775394	     -4.10087691	     -0.11194857	     -1.04436584	      1.61489766	    -12.48987434	     12.13698044	      1.51440382	     -5.81032651	     -1.15983051	     -2.24767958
      0.16000000	      1.70442911	     -0.42815591	      5.06525689	      0.68019738	      1.08372136	     -0.33237504	     -0.13393620	      1.29868907	     -7.92359629	    -11.99565033	     10.56800578	     -3.99499385	     -0.16779129	     -1.20688079	      1.02326901	    -12.58571591	     12.22696700	      1.48904436	     -5.77397842	     -1.10050341	     -2.27328721
